<svg xmlns="http://www.w3.org/2000/svg" viewBox="0 0 333 416.25" fill-rule="evenodd" clip-rule="evenodd" shape-rendering="geometricPrecision" text-rendering="geometricPrecision" image-rendering="optimizeQuality">
  <defs>
    <style>
      .fil0{fill:#000}
    </style>
  </defs>
  <path class="fil0" d="M67 64c7-6 14-12 23-18l8 12c-8 4-15 10-22 17l-9-11zM40 100c5-9 10-16 16-24l11 8c-6 7-11 15-15 23l-12-7zM26 143c1-10 4-19 8-28l13 4c-4 8-6 18-8 27l-13-3zM25 187c-1-9-2-19-1-29h14c-1 10 0 19 1 28l-14 1zM39 230c-5-9-8-18-11-27l14-4c2 9 5 17 9 26l-12 5zM64 266c-6-6-12-14-18-22l12-8c4 7 10 15 17 21l-11 9zM100 293c-9-4-16-10-24-16l8-11c7 6 15 11 23 15l-7 12zM142 308c-9-2-18-5-27-8l4-13c8 3 18 6 27 7l-4 14zM187 308c-9 2-19 2-29 1v-13c10 0 19 0 28-2l1 14zM230 295c-9 4-18 8-27 10l-4-13c9-2 17-6 25-10l6 13zM266 269c-6 7-14 13-22 18l-8-11 2-2c-28-28-46-68-46-112 0-41 15-78 41-106-2-1-5-3-7-4l7-12c9 5 17 10 24 16l-8 11c-1-1-3-2-5-4-24 26-39 61-39 99 0 29 8 56 23 79-5-16-9-34-9-52 0-42 17-80 44-108-1-2-3-4-4-5l10-9c7 7 13 14 18 22l-11 9c-2-3-3-5-5-7-24 26-38 60-38 98 0 12 1 23 4 34 1-42 20-80 48-108l-3-6 13-6c4 9 8 18 10 28l-13 4c-1-2-1-4-2-6-25 26-40 61-40 100 0 11 1 23 4 33l3-3 9 10z"/>
  <path class="fil0" d="M293 233c-4 9-10 17-16 24l-11-8c6-7 11-15 15-23l12 7zM308 191c-2 9-5 19-8 28l-13-5c3-8 6-17 7-26l14 3zM308 146c2 10 2 19 1 29h-13c0-9 0-19-2-28l14-1zM191 26c9 1 19 4 28 7l-5 14c-8-4-17-6-26-8l3-13zM109 51l-5-13c8-4 17-7 26-10l5 14c-9 2-18 5-26 9zM175 24v14c-9-1-19 0-28 1l-1-14c10-1 19-2 29-1zM167 53c19 0 37 5 53 13-8 11-15 22-19 34-11-5-22-8-34-8-42 0-75 33-75 75 0 41 33 75 75 75 13 0 26-4 37-10 5 11 12 22 20 32-17 10-36 16-57 16-63 0-114-51-114-113 0-63 51-114 114-114z"/>
</svg>
